<svg id="Layer_1" data-name="Layer 1" xmlns="http://www.w3.org/2000/svg" viewBox="0 0 912.87 174.38"><defs><style>.cls-1{fill:#fddb00;}.cls-2{fill:#7323dc;}</style></defs><path d="M367.41,591.79a60.65,60.65,0,0,1-22-3.88A53.23,53.23,0,0,1,327.83,577a49.5,49.5,0,0,1-11.59-16.55,54.61,54.61,0,0,1,0-41.52,49.63,49.63,0,0,1,11.59-16.48,53.39,53.39,0,0,1,17.48-10.94,60.16,60.16,0,0,1,21.95-3.89,61.18,61.18,0,0,1,21.95,3.81,52.61,52.61,0,0,1,17.49,10.87,49.5,49.5,0,0,1,11.59,16.55,55,55,0,0,1,0,41.67,49.29,49.29,0,0,1-11.59,16.62A52.29,52.29,0,0,1,389.21,588,60.78,60.78,0,0,1,367.41,591.79Zm-.15-19.71a32,32,0,0,0,12.45-2.38,30.33,30.33,0,0,0,10-6.76,31.39,31.39,0,0,0,6.69-10.22,37,37,0,0,0,0-26.05,31.29,31.29,0,0,0-6.69-10.22,30.36,30.36,0,0,0-10-6.77,32,32,0,0,0-12.45-2.37,32.57,32.57,0,0,0-12.52,2.37,29.32,29.32,0,0,0-10,6.77,31.75,31.75,0,0,0-6.62,10.22,36.83,36.83,0,0,0,0,26.05,31.86,31.86,0,0,0,6.62,10.22,29.29,29.29,0,0,0,10,6.76A32.58,32.58,0,0,0,367.26,572.08Z" transform="translate(-78.6 -452.66)"/><path d="M475.78,591.22a47,47,0,0,1-22.23-5.11,39.93,39.93,0,0,1-15.26-55.34,39.37,39.37,0,0,1,15.26-14.11,46.55,46.55,0,0,1,22.23-5.18,43.19,43.19,0,0,1,21.38,5.11,29.7,29.7,0,0,1,13.17,14.47l-17.28,9.5a20.81,20.81,0,0,0-7.62-8,19.59,19.59,0,0,0-9.79-2.52,20.94,20.94,0,0,0-10.22,2.52,18.72,18.72,0,0,0-7.34,7.27,22.72,22.72,0,0,0-2.73,11.51,23.19,23.19,0,0,0,2.73,11.59,18.64,18.64,0,0,0,7.34,7.34,20.94,20.94,0,0,0,10.22,2.51,19.58,19.58,0,0,0,9.79-2.51,20.6,20.6,0,0,0,7.62-8.14l17.28,9.5A30.16,30.16,0,0,1,497.16,586,42.68,42.68,0,0,1,475.78,591.22Z" transform="translate(-78.6 -452.66)"/><path d="M514.93,531.63V514.36h53.68v17.27Zm40.87,59.59q-13.66,0-21.3-7t-7.63-20.8V495.51h22.6V563q0,4.89,2.52,7.63a8.85,8.85,0,0,0,6.84,2.73,14.67,14.67,0,0,0,9.21-2.88l5.9,15.83a22.88,22.88,0,0,1-8.13,3.67A40.37,40.37,0,0,1,555.8,591.22Z" transform="translate(-78.6 -452.66)"/><path d="M620.57,591.22a45.08,45.08,0,0,1-21.8-5.18,40.25,40.25,0,0,1-15-55.34,38.3,38.3,0,0,1,15-14.11,45.62,45.62,0,0,1,21.8-5.11,46.39,46.39,0,0,1,22,5.11A38.23,38.23,0,0,1,657.7,530.7,39.24,39.24,0,0,1,642.59,586,45.84,45.84,0,0,1,620.57,591.22Zm0-18.43a20,20,0,0,0,10.15-2.51,18.52,18.52,0,0,0,7-7.42,23.78,23.78,0,0,0,2.66-11.51,23.24,23.24,0,0,0-2.66-11.51,18.76,18.76,0,0,0-7-7.27,19.74,19.74,0,0,0-10-2.52,20.1,20.1,0,0,0-10.07,2.52,18.52,18.52,0,0,0-7.12,7.27,23.13,23.13,0,0,0-2.67,11.51,23.67,23.67,0,0,0,2.67,11.51,18.28,18.28,0,0,0,7.12,7.42A19.81,19.81,0,0,0,620.57,572.79Z" transform="translate(-78.6 -452.66)"/><path d="M668.93,531.63V514.36h53.68v17.27Zm40.87,59.59q-13.66,0-21.3-7t-7.62-20.8V495.51h22.59V563q0,4.89,2.52,7.63a8.85,8.85,0,0,0,6.84,2.73,14.67,14.67,0,0,0,9.21-2.88l5.9,15.83a22.88,22.88,0,0,1-8.13,3.67A40.37,40.37,0,0,1,709.8,591.22Z" transform="translate(-78.6 -452.66)"/><path d="M776.3,591.22q-13.24,0-23.17-5.18a37.75,37.75,0,0,1-20.87-34.69,40.29,40.29,0,0,1,5.25-20.58,37,37,0,0,1,14.68-14.18,43.91,43.91,0,0,1,21.23-5.11,42.78,42.78,0,0,1,20.51,4.9,36.88,36.88,0,0,1,14.47,13.81q5.31,8.92,5.32,21.45c0,.86-.05,1.85-.14,3s-.2,2.13-.29,3.09h-62.9V544.59h51.1l-8.78,3.88A20.41,20.41,0,0,0,790.4,538a17.83,17.83,0,0,0-6.76-7,19.73,19.73,0,0,0-10.07-2.51A20.1,20.1,0,0,0,763.42,531a17.55,17.55,0,0,0-6.84,7.06,22.24,22.24,0,0,0-2.45,10.72v3.45A21.25,21.25,0,0,0,757,563.44a19,19,0,0,0,7.92,7.27A26.78,26.78,0,0,0,777,573.23a28.84,28.84,0,0,0,10.72-1.87,26.56,26.56,0,0,0,8.57-5.62l11.94,13A34.81,34.81,0,0,1,794.87,588,49.56,49.56,0,0,1,776.3,591.22Z" transform="translate(-78.6 -452.66)"/><path d="M866.11,591.22a47,47,0,0,1-22.24-5.11,39.93,39.93,0,0,1-15.25-55.34,39.41,39.41,0,0,1,15.25-14.11,46.59,46.59,0,0,1,22.24-5.18,43.15,43.15,0,0,1,21.37,5.11,29.66,29.66,0,0,1,13.17,14.47l-17.27,9.5a20.76,20.76,0,0,0-7.63-8,19.55,19.55,0,0,0-9.78-2.52,20.92,20.92,0,0,0-10.22,2.52,18.65,18.65,0,0,0-7.34,7.27,22.62,22.62,0,0,0-2.74,11.51,23.08,23.08,0,0,0,2.74,11.59,18.57,18.57,0,0,0,7.34,7.34A20.91,20.91,0,0,0,866,572.79a19.54,19.54,0,0,0,9.78-2.51,20.55,20.55,0,0,0,7.63-8.14l17.27,9.5A30.11,30.11,0,0,1,887.48,586,42.64,42.64,0,0,1,866.11,591.22Z" transform="translate(-78.6 -452.66)"/><path d="M959.37,511.48a36.13,36.13,0,0,1,16.48,3.67,26.58,26.58,0,0,1,11.44,11.23q4.19,7.56,4.18,19.36v44.33H969V549.19q0-9.35-4.11-13.82t-11.58-4.46a19.69,19.69,0,0,0-9.57,2.31,16.05,16.05,0,0,0-6.62,6.76q-2.39,4.47-2.38,11.8v38.29H912.31V483.27h22.45v50.81l-5-6.48a28.72,28.72,0,0,1,11.95-11.94A36.73,36.73,0,0,1,959.37,511.48Z" transform="translate(-78.6 -452.66)"/><path class="cls-1" d="M265.85,475.4c-1.58-7.92-10.29-15.81-19.07-17.22a465.14,465.14,0,0,0-143,0c-8.77,1.41-17.48,9.3-19.07,17.22a342.42,342.42,0,0,0,0,128.9c1.59,7.92,10.3,15.8,19.07,17.21a465.14,465.14,0,0,0,143,0c8.78-1.41,17.49-9.29,19.07-17.21A342.42,342.42,0,0,0,265.85,475.4ZM175.27,593.9a54,54,0,1,1,49.09-31.43A54,54,0,0,1,175.27,593.9Z" transform="translate(-78.6 -452.66)"/><path class="cls-2" d="M237.48,593.9H203.29a60.89,60.89,0,0,0,27.34-28.54c.41-.93.83-1.86,1.21-2.79C244.51,564.08,252.63,580.75,237.48,593.9Z" transform="translate(-78.6 -452.66)"/><path class="cls-2" d="M229.32,539.85a54,54,0,1,1-54-54.06A53.92,53.92,0,0,1,229.32,539.85Z" transform="translate(-78.6 -452.66)"/><path class="cls-2" d="M229.32,539.85a54,54,0,1,1-54-54.06A53.92,53.92,0,0,1,229.32,539.85Z" transform="translate(-78.6 -452.66)"/><path class="cls-1" d="M175.27,517.23a22.62,22.62,0,1,1,0,45.24h-.14a22.62,22.62,0,0,1,.14-45.24Zm19.21,22.62A19.2,19.2,0,1,0,175.27,559,19.22,19.22,0,0,0,194.48,539.85Z" transform="translate(-78.6 -452.66)"/><path class="cls-1" d="M175.27,520.67a19.18,19.18,0,1,1-19.18,19.18A19.22,19.22,0,0,1,175.27,520.67Z" transform="translate(-78.6 -452.66)"/><path class="cls-2" d="M175.27,562.47a15.63,15.63,0,1,1-.14,0Z" transform="translate(-78.6 -452.66)"/><path class="cls-2" d="M147.24,593.9H113.09c-15.15-13.15-7-29.85,5.68-31.33.38.93.79,1.86,1.21,2.79A61,61,0,0,0,147.24,593.9Z" transform="translate(-78.6 -452.66)"/></svg>